<svg version="1.1" id="Capa_1" xmlns="http://www.w3.org/2000/svg" x="0" y="0" viewBox="0 0 512 512" style="enable-background:new 0 0 512 512" xml:space="preserve"><path style="fill:#e7001e" d="M344 160c-4.422 0-8-3.582-8-8v-48c0-44.113-35.891-80-80-80s-80 35.887-80 80v48c0 4.418-3.578 8-8 8s-8-3.582-8-8v-48c0-52.934 43.063-96 96-96s96 43.066 96 96v48c0 4.418-3.578 8-8 8z"/><path style="fill:#ff4f19" d="m475.219 411.84-25.68-184c-6.031-43.234-43.5-75.84-87.148-75.84H149.609c-43.648 0-81.117 32.605-87.148 75.84l-25.68 184a87.958 87.958 0 0 0 20.773 69.926A87.968 87.968 0 0 0 123.938 512h264.125a87.965 87.965 0 0 0 66.383-30.234 87.959 87.959 0 0 0 20.773-69.926z"/><path style="fill:#e7001e" d="M362.391 152H149.609c-9.632 0-18.928 1.669-27.687 4.608l22.788 141.869C149.734 324.855 172.867 344 199.719 344h112.563c26.852 0 49.984-19.145 55.047-45.75l22.749-141.642c-8.759-2.939-18.056-4.608-27.687-4.608z"/><path style="fill:#ffee43" d="M304 304h-96c-8.837 0-16-7.163-16-16s7.163-16 16-16h96c8.837 0 16 7.163 16 16s-7.163 16-16 16z"/><path style="fill:#ffd100" d="M192 384c0-8.837 7.163-16 16-16s16 7.163 16 16-7.163 16-16 16-16-7.163-16-16zM192 448c0-8.837 7.163-16 16-16s16 7.163 16 16-7.163 16-16 16-16-7.163-16-16zM288 384c0-8.837 7.163-16 16-16s16 7.163 16 16-7.163 16-16 16-16-7.163-16-16zM288 448c0-8.837 7.163-16 16-16s16 7.163 16 16-7.163 16-16 16-16-7.163-16-16z"/><path style="fill:#ff4f19" d="M323.891 64c-4.605 0-9.18-1.98-12.344-5.813C297.801 41.547 277.555 32 256 32s-41.801 9.547-55.547 26.188c-5.637 6.816-15.719 7.773-22.523 2.148-6.816-5.625-7.777-15.711-2.148-22.523C195.625 13.781 224.867 0 256 0s60.375 13.781 80.219 37.813c5.629 6.813 4.668 16.898-2.148 22.523A15.92 15.92 0 0 1 323.891 64z"/><path style="fill:#ffd100" d="M152 152c0-8.837 7.163-16 16-16s16 7.163 16 16M328 152c0-8.837 7.163-16 16-16s16 7.163 16 16"/></svg>