<svg version="1.1" id="Layer_1" xmlns="http://www.w3.org/2000/svg" x="0" y="0" viewBox="0 0 511.753 511.753" style="enable-background:new 0 0 511.753 511.753" xml:space="preserve"><path style="fill:#8697cb" d="M105.807 70.621c7.106-6.709 30.72-16.419 53.389-23.817-3.513 19.527 8.925 41.295 34.887 41.472 6.268.044 9.454 0 17.655 0l-31.311 23.066c-14.23 10.134-17.152 30.517-5.614 43.635.177.194.353.397.538.6 18.211 20.136 56.806 65.112 80.525 65.112s62.314-44.977 80.525-65.112c.185-.203.362-.406.538-.6 11.538-13.118 8.616-33.501-5.614-43.635l-31.311-23.066c8.201 0 11.388.044 17.655 0 25.962-.177 38.4-21.945 34.887-41.472 22.669 7.398 46.283 17.108 53.389 23.817 19.862 18.759 67.31 295.177 88.276 397.241l-61.793 8.828s-39.724-220.142-45.798-238.345c-6.065-18.211-24.638-61.608-24.638-61.608-8.898 25.194-16.49 61.334-17.611 96.918l1.562 8.58h7.036c3.293 15.819 5.455 34.004 8.828 52.966h-5.932c10.125 47.678 23.587 112.967 23.587 158.897-35.31 17.655-88.276 17.655-123.586 17.655s-88.276 0-123.586-17.655c0-45.903 13.303-110.468 23.587-158.897h-5.932c3.372-18.962 5.535-37.146 8.828-52.966h7.036l1.562-8.58c-1.121-35.584-8.713-71.724-17.611-96.918 0 0-18.573 43.396-24.638 61.608-6.073 18.202-45.798 238.345-45.798 238.345l-61.793-8.828C38.497 365.798 85.945 89.379 105.807 70.621z"/><path style="fill:#556080" d="M229.394 335.203h-79.448c3.372-18.962 5.535-37.146 8.828-52.966h70.621v52.966zM282.359 282.237h70.621c3.293 15.819 5.455 34.004 8.828 52.966H282.36v-52.966zM194.083 8.828c-9.251 3.743-17.346 11.555-24.55 18.591l-.265.265c-20.895 20.18-10.487 60.354 24.814 60.593 6.268.044 9.454 0 17.655 0l-31.311 23.066c-14.23 10.134-17.152 30.517-5.614 43.635.177.194.353.397.538.6 18.211 20.136 56.797 65.112 80.525 65.112v-44.138C217.812 153.565 194.083 8.828 194.083 8.828M317.67 8.828c9.251 3.743 17.346 11.555 24.549 18.591l.265.265c20.895 20.18 10.487 60.354-24.814 60.593-6.268.044-9.454 0-17.655 0l31.311 23.066c14.23 10.134 17.152 30.517 5.614 43.635-.177.194-.353.397-.538.6-18.211 20.136-56.797 65.112-80.525 65.112v-44.138C293.941 153.565 317.67 8.828 317.67 8.828"/><path style="fill:#8697cb" d="M255.876 0c-26.483 0-50.158 4.361-61.793 8.828l8.828 44.138h105.932l8.828-44.138C306.035 4.361 282.359 0 255.876 0"/><path style="fill:#424b63" d="M255.876 52.966h-52.93c10.169 44.579 28.61 108.906 52.93 123.586 24.32-14.68 42.761-79.007 52.93-123.586h-52.93z"/><path style="fill:#556080" d="M133.614 467.479c41.631-1.783 72.863-43.723 55.631-88.135h-42.417c-5.737 29.414-10.918 60.46-13.214 88.135M364.919 379.341h-42.417c-17.231 44.412 14.001 86.351 55.631 88.135-2.303-27.693-7.502-58.828-13.214-88.135M255.876 282.237a8.82 8.82 0 0 1-8.828-8.828v-52.966a8.82 8.82 0 0 1 8.828-8.828 8.82 8.82 0 0 1 8.828 8.828v52.966a8.82 8.82 0 0 1-8.828 8.828M264.704 511.733V344.027a8.826 8.826 0 0 0-8.828-8.828 8.826 8.826 0 0 0-8.828 8.828v167.706c2.984.009 6.047.018 8.828.018 2.781 0 5.844-.009 8.828-.018"/><path style="fill:#424b63" d="M282.359 335.203h17.655l26.483-26.483-26.483-26.483h-17.655z"/><path style="fill:#424b63" d="M229.394 344.032h52.965v-70.62h-52.965z"/><path style="fill:#8697cb" d="M255.876 326.375a8.82 8.82 0 0 1-8.828-8.828v-17.655a8.82 8.82 0 0 1 8.828-8.828 8.82 8.82 0 0 1 8.828 8.828v17.655a8.82 8.82 0 0 1-8.828 8.828"/></svg>