<svg version="1.1" id="Layer_1" xmlns="http://www.w3.org/2000/svg" x="0" y="0" viewBox="0 0 511.996 511.996" style="enable-background:new 0 0 511.996 511.996" xml:space="preserve"><path style="fill:#fdd7ad" d="M120.271 71.894c1.995-3.805 4.979-6.991 8.351-9.613 21.257-16.49 49.02-11.414 73.613-17.073 13.4-3.081 25.83-11.388 27.277-26.553.124-1.28 0-17.655 0-17.655h52.966s-.124 16.375 0 17.655c1.448 15.166 13.877 23.473 27.277 26.553 24.594 5.658 52.356.583 73.613 17.073 3.372 2.622 6.356 5.809 8.351 9.613 0 0 12.138 30.897-56.276 88.002H176.547c-68.414-57.105-56.276-88.002-56.276-88.002" transform="translate(0 -1)"/><path style="fill:#26b99a" d="M395.677 344.618c-24.858-33.298-49.028-59.021-63.682-73.657-8.192-8.174-11.396-19.959-8.58-31.188 6.321-25.212 12.394-65.465 12.394-79.881H176.18c0 14.415 6.082 54.669 12.403 79.881 2.816 11.229-.388 23.013-8.58 31.188-14.663 14.636-38.833 40.36-63.691 73.657-29.105 39-47.642 84.895-54.519 133.067 7.601 6.674 34.957 17.646 48.199 17.646 35.31 0 51.112-6.241 58.094-8.819 0 0 26.121 26.483 52.604 26.483 28.769 0 35.31-8.951 35.31-8.951s6.532 8.951 35.31 8.951c26.483 0 52.595-26.483 52.595-26.483 6.991 2.578 22.784 8.819 58.094 8.819 13.241 0 40.607-10.973 48.207-17.646-6.887-48.172-25.416-94.067-54.529-133.067" transform="translate(0 -1)"/><path style="fill:#1c8e73" d="M176.346 274.653h159.303a467.3 467.3 0 0 0-3.54-3.558c-8.254-8.254-11.494-20.189-8.66-31.523l.053-.23H188.484l.062.23c2.825 11.335-.406 23.27-8.669 31.523a453.732 453.732 0 0 0-3.531 3.558" transform="translate(0 -1)"/><path style="fill:#1c8e73" d="M255.995 248.17a8.826 8.826 0 0 0 8.828-8.828v-79.448h-17.656v79.448a8.826 8.826 0 0 0 8.828 8.828M343.03 49.174c-6.647-.636-13.365-1.059-19.977-1.801-25.344 28.292-40.298 78.045-40.298 112.516h17.655c0-37.058 17.938-84.189 39.98-105.048 1.633-1.545 2.463-3.584 2.64-5.667M168.96 49.174c.177 2.083 1.006 4.122 2.639 5.667 22.042 20.86 39.98 67.99 39.98 105.048h17.655c0-34.472-14.954-84.224-40.298-112.516-6.611.742-13.328 1.165-19.976 1.801" transform="translate(0 -1)"/></svg>