<svg version="1.1" id="Layer_1" xmlns="http://www.w3.org/2000/svg" x="0" y="0" viewBox="0 0 512 512" style="enable-background:new 0 0 512 512" xml:space="preserve"><path style="fill:#bdc3c7" d="M281.6 260.051h-51.2a8.53 8.53 0 0 1-8.533-8.533 8.53 8.53 0 0 1 8.533-8.533h51.2a8.53 8.53 0 0 1 8.533 8.533 8.53 8.53 0 0 1-8.533 8.533M255.991 192.001a130.662 130.662 0 0 1-45.918-8.329l-29.175-11.025c-4.403-1.664-6.63-6.588-4.966-10.999 1.664-4.403 6.613-6.622 10.999-4.966l29.15 11.017a113.666 113.666 0 0 0 79.863-.009l29.124-11.008c4.386-1.673 9.327.555 10.999 4.966 1.664 4.412-.563 9.335-4.966 10.999l-29.15 11.017a130.988 130.988 0 0 1-45.96 8.337M25.6 260.051H8.533A8.53 8.53 0 0 1 0 251.518a8.53 8.53 0 0 1 8.533-8.533H25.6a8.53 8.53 0 0 1 8.533 8.533 8.53 8.53 0 0 1-8.533 8.533M503.467 260.051H486.4a8.53 8.53 0 0 1-8.533-8.533 8.53 8.53 0 0 1 8.533-8.533h17.067a8.53 8.53 0 0 1 8.533 8.533 8.53 8.53 0 0 1-8.533 8.533"/><path style="fill:#556080" d="M119.017 362.451c-51.593 0-93.414-41.822-93.414-93.414v-26.052c0-33.323 17.698-61.525 46.481-78.319 34.551-20.156 77.286-20.156 111.829 0 28.791 16.794 46.49 44.996 46.49 78.319v8.533c0 61.517-49.869 110.933-111.386 110.933"/><path style="fill:#3e4860" d="M59.733 254.134a8.53 8.53 0 0 1-8.533-8.533c0-24.124 12.945-46.66 33.783-58.82 4.079-2.372 9.301-.998 11.665 3.072 2.372 4.07 1.007 9.293-3.063 11.665-15.616 9.114-25.318 26.001-25.318 44.083a8.531 8.531 0 0 1-8.534 8.533"/><path style="fill:#556080" d="M392.983 362.451c51.593 0 93.414-41.822 93.414-93.414v-26.052c0-36.258-17.698-61.525-46.481-78.319-34.551-20.156-77.286-20.156-111.829 0-28.791 16.794-46.49 44.996-46.49 78.319v8.533c0 61.517 49.869 110.933 111.386 110.933"/></svg>