<svg version="1.1" id="Layer_1" xmlns="http://www.w3.org/2000/svg" x="0" y="0" viewBox="0 0 512 512" style="enable-background:new 0 0 512 512" xml:space="preserve"><path style="fill:#ffc72d" d="M256 121.598c-33.525 0-60.799-27.275-60.799-60.799S222.475 0 256 0s60.799 27.275 60.799 60.799-27.274 60.799-60.799 60.799z"/><path style="fill:#ffaf00" d="M256 0v121.598c33.525 0 60.799-27.275 60.799-60.799S289.525 0 256 0z"/><path style="fill:#ff423d" d="M322.685 92.098c-37.934-11.276-95.744-11.185-133.37 0-79.81 23.739-138.178 97.78-138.178 185.182v104.923c0 10.34 8.379 18.732 18.732 18.732H442.13c10.352 0 18.732-8.392 18.732-18.732V277.279c0-87.402-58.368-161.442-138.177-185.181z"/><path style="fill:#f32e28" d="M322.685 92.098c-18.937-5.63-42.826-8.426-66.685-8.423v317.259h186.131c10.352 0 18.732-8.392 18.732-18.732V277.279c-.001-87.402-58.369-161.442-138.178-185.181z"/><path style="fill:#f32e28" d="M336.771 136.404v264.529h-37.463V136.404c0-52.815-86.615-52.645-86.615 0v264.529H175.23V136.404a76.463 76.463 0 0 1 14.086-44.307c36.931-10.979 94.822-11.46 133.37 0 8.865 12.526 14.085 27.823 14.085 44.307z"/><path style="fill:#e0231b" d="M322.685 92.098c-19.111-5.681-42.977-8.424-66.685-8.412v13.171c21.654-.021 43.308 13.14 43.308 39.548v264.529h37.463v-264.53a76.458 76.458 0 0 0-14.086-44.306z"/><path style="fill:#ffc72d" d="M481.924 512H30.076c-10.345 0-18.732-8.387-18.732-18.732V382.197c0-10.345 8.387-18.732 18.732-18.732h451.849c10.345 0 18.732 8.387 18.732 18.732v111.072c-.001 10.344-8.388 18.731-18.733 18.731z"/><path style="fill:#ffaf00" d="M481.924 363.465H256V512h225.924c10.345 0 18.732-8.387 18.732-18.732V382.197c0-10.345-8.387-18.732-18.732-18.732z"/><path style="fill:#ffaf00" d="M299.96 456.464h-87.92c-10.345 0-18.732-8.387-18.732-18.732 0-10.345 8.387-18.732 18.732-18.732h87.919c10.345 0 18.732 8.387 18.732 18.732 0 10.345-8.387 18.732-18.731 18.732z"/><path style="fill:#ff9b00" d="M299.96 419.001H256v37.463h43.96c10.345 0 18.732-8.387 18.732-18.732-.001-10.344-8.388-18.731-18.732-18.731z"/></svg>