<svg version="1.1" id="Layer_1" xmlns="http://www.w3.org/2000/svg" x="0" y="0" viewBox="0 0 512 512" style="enable-background:new 0 0 512 512" xml:space="preserve"><path style="fill:#3797d3" d="M323.768 95.672H188.232c-10.345 0-18.732-8.387-18.732-18.732V18.732C169.501 8.387 177.888 0 188.232 0h135.535c10.345 0 18.732 8.387 18.732 18.732V76.94c0 10.345-8.387 18.732-18.731 18.732z"/><path style="fill:#4881c2" d="M323.768 0H256v95.672h67.768c10.345 0 18.732-8.387 18.732-18.732V18.732C342.499 8.387 334.112 0 323.768 0z"/><path style="fill:#48aee2" d="M345.662 58.206H166.338c-80.002 0-146.544 64.785-146.544 146.532v190.514c0 10.34 8.392 18.732 18.732 18.732h75.551v79.285c0 10.34 8.379 18.732 18.732 18.732h246.384c10.352 0 18.732-8.392 18.732-18.732v-79.285h75.551c10.34 0 18.732-8.392 18.732-18.732V204.738c-.001-81.742-66.525-146.532-146.546-146.532z"/><path style="fill:#3797d3" d="M345.662 58.206H256V512h123.192c10.352 0 18.732-8.392 18.732-18.732v-79.285h75.551c10.34 0 18.732-8.392 18.732-18.732V204.738c0-81.742-66.524-146.532-146.545-146.532z"/><path style="fill:#4881c2" d="M237.268 58.206h37.463V512h-37.463zM95.332 175.828c-10.34 0-18.732 8.392-18.732 18.732v126.685H19.793v37.463H76.6v55.275h37.463V194.56c.001-10.34-8.379-18.732-18.731-18.732z"/><path style="fill:#2f66a3" d="M256 58.206h18.732V512H256zM492.207 321.245h-56.813V194.563c0-10.345-8.387-18.732-18.732-18.732-10.345 0-18.732 8.387-18.732 18.732v219.414h37.463v-55.269h56.813v-37.463z"/></svg>