<svg version="1.1" id="Layer_1" xmlns="http://www.w3.org/2000/svg" x="0" y="0" viewBox="0 0 512 512" style="enable-background:new 0 0 512 512" xml:space="preserve"><path style="fill:#85c9ff" d="m421.741 152.114-54.049 59.504h-42.156l-54.477-59.285 28.999-42.678h91.743z"/><path style="fill:#00a6ff" d="m421.741 152.114-54.049 59.504H344.2V109.655h47.601z"/><path style="fill:#dfccbe" d="m459.853 285.783-31.267 2.383c-3.281-42.919-39.638-76.548-82.766-76.548-.543 0-1.076 0-1.62.021-42.543.794-77.259 32.971-81.052 75.482l-31.225-2.78c2.529-28.341 15.498-54.592 36.524-73.925 20.744-19.072 47.591-29.741 75.754-30.128.543-.021 1.076-.021 1.62-.021 28.999 0 56.661 10.879 77.886 30.619 21.119 19.636 33.952 46.232 36.146 74.897z"/><path style="fill:#bd9b7b" d="m459.853 285.783-31.267 2.383c-3.281-42.919-39.638-76.548-82.766-76.548-.543 0-1.076 0-1.62.021v-31.351c.543-.021 1.076-.021 1.62-.021 28.999 0 56.661 10.879 77.886 30.619 21.12 19.636 33.953 46.232 36.147 74.897z"/><path style="fill:#a7aff3" d="M512 335.798v94.899c0 32.02-25.645 58.062-57.163 58.062H233.02c-31.518 0-57.163-26.042-57.163-58.062v-78.983l.01-.387.543-15.832c.188-5.309 1.285-10.503 3.271-15.519H508.77a46.556 46.556 0 0 1 2.445 8.58c.01.042.021.084.021.125.105.502.188 1.003.261 1.515.073.439.136.888.188 1.338.073.658.136 1.317.188 1.975.052.658.094 1.327.115 1.986l.012.303z"/><path style="fill:#867b6e" d="M512 335.798v15.916H175.857l.01-.387.543-15.832c.188-5.309 1.285-10.503 3.271-15.519 4.661-11.809 14.191-22.677 28.069-32.04 6.793-4.577 14.62-8.81 23.44-12.603a70.72 70.72 0 0 1 2.048-.857c10.837-4.525 22.823-8.308 35.656-11.318 23.022-5.382 48.73-8.245 75.305-8.245 27.913 0 54.874 3.156 78.764 9.092 12.331 3.051 23.837 6.845 34.245 11.328.491.209.982.428 1.463.637 26.021 11.495 43.233 26.742 50.046 44.006a47.767 47.767 0 0 1 2.498 8.58c.01.042.021.084.021.125.094.502.188 1.014.261 1.515.073.439.136.888.188 1.338.073.658.136 1.317.188 1.975.052.658.094 1.327.115 1.986l.012.303z"/><path style="fill:#a7aff3" d="M207.751 23.241v328.473h-83.038c-3.637 0-7.242-.157-10.795-.47C50.182 345.757 0 292.137 0 227.001v-79.046C0 82.829 50.182 29.198 113.918 23.712c3.553-.314 7.158-.47 10.795-.47h83.038z"/><path style="fill:#7885eb" d="M512 335.798v94.899c0 32.02-26.052 58.062-58.072 58.062H344.2V319.977h164.518c1.986 5.016 3.093 10.21 3.271 15.519l.011.302z"/><path style="fill:#766957" d="M512 335.798v15.916H344.2v-96.801c27.913 0 54.874 3.156 78.764 9.092 12.331 3.051 23.837 6.845 34.246 11.328.491.209.982.428 1.463.637 26.021 11.495 43.233 26.742 50.046 44.006 1.986 5.016 3.093 10.21 3.271 15.519l.01.303z"/><path style="fill:#7885eb" d="M207.751 187.478v164.236h-83.038c-3.637 0-7.242-.157-10.795-.47C50.182 345.757 0 292.137 0 227.001v-39.523h207.751z"/><path style="fill:#d7e9ff" d="M145.269 23.241v328.473h-20.556c-3.637 0-7.242-.157-10.795-.47V23.712c3.553-.314 7.158-.47 10.795-.47h20.556z"/><path style="fill:#bdf" d="M145.269 187.478v164.236h-20.556c-3.637 0-7.242-.157-10.795-.47V187.478h31.351z"/></svg>