<svg version="1.1" id="Layer_1" xmlns="http://www.w3.org/2000/svg" x="0" y="0" viewBox="0 0 512 512" style="enable-background:new 0 0 512 512" xml:space="preserve"><path style="fill:#dfdfe0" d="M219.88 49.844h99.473v33.391H219.88z"/><path style="fill:#ceced1" d="M188.807 163.76h-47.36V17.417h94.72V163.76z"/><path style="fill:#bebec1" d="M212.487 163.76h-23.68V17.417h47.36V163.76z"/><path style="fill:#d0f0ea" d="M293.832 512H83.784l-15.821-21.098c-59.385-79.191-55.245-189.138 9.929-263.638l25.496-29.145s19.782-24.621 85.419-24.621 85.419 24.621 85.419 24.621l25.496 29.145c65.173 74.499 69.315 184.447 9.929 263.638L293.832 512z"/><path style="fill:#92e0d3" d="m299.723 227.266-25.496-29.145S254.445 173.5 188.808 173.5V512h105.023l15.821-21.098c59.386-79.189 55.244-189.137-9.929-263.636z"/><path style="fill:#92e0d3" d="M26.316 355.272c-2.247 47.363 11.519 95.455 41.647 135.63L83.784 512h210.048l15.821-21.098c30.128-40.175 43.894-88.267 41.647-135.63H26.316z"/><path style="fill:#6db2a6" d="M188.807 355.272V512H293.83l15.821-21.098c30.128-40.175 43.894-88.267 41.647-135.63H188.807z"/><path style="fill:#ededee" d="M172.108 178.822h33.391v246.317h-33.391z"/><path style="fill:#dfdfe0" d="M188.804 178.822H205.5v246.317h-16.696z"/><path style="fill:#9b9ba1" d="M188.807 115.664h-85.419v82.457h170.839v-82.457z"/><path style="fill:#757576" d="M231.517 115.664h-42.71v82.457h85.42v-82.457z"/><ellipse style="fill:#dc90cc" cx="391.111" cy="66.54" rx="94.82" ry="66.54"/><path style="fill:#c0369e" d="M485.928 66.54c0 36.749-42.45 66.54-94.815 66.54s-94.815-29.792-94.815-66.54h189.63z"/></svg>