<svg xmlns="http://www.w3.org/2000/svg" width="123.961" height="109.305"><g fill="#ff909d"><path d="M49.8 21.704a5.96 5.96 0 0 0 3-8l-4.9-10.3a5.978 5.978 0 0 0-7.8-2.9 68.894 68.894 0 0 0-21.6 14A52.249 52.249 0 0 0 4 37.404c-2.6 8.6-4 20.3-4 35.2v30.7a6.018 6.018 0 0 0 6 6h39.3a6.018 6.018 0 0 0 6-6v-39.3a6.017 6.017 0 0 0-6-6H26.5c.2-10.1 2.6-18.2 7-24.3 3.6-4.899 9-8.899 16.3-12ZM120.4 21.704a5.961 5.961 0 0 0 3-8l-4.9-10.2a5.979 5.979 0 0 0-7.8-2.9 72.439 72.439 0 0 0-21.5 13.9 53.37 53.37 0 0 0-14.6 23q-3.9 12.6-3.9 35.1v30.7a6.018 6.018 0 0 0 6 6H116a6.018 6.018 0 0 0 6-6v-39.3a6.017 6.017 0 0 0-6-6H97.1c.2-10.1 2.6-18.2 7-24.3 3.6-4.899 9-8.899 16.3-12Z"/></g></svg>