<svg xmlns="http://www.w3.org/2000/svg" version="1.1" id="Layer_1" x="0" y="0" viewBox="0 0 448.02 448.02" style="enable-background:new 0 0 448.02 448.02" xml:space="preserve" width="512" height="512"><path style="fill:#0071ce" d="M200.126 161.091c-8.325-17.186-15.836-48.897-44.21-48.897-28.373 0-48.4 23.367 4.174 67.595l40.036-18.698z"/><path style="fill:#454f58" d="M437.361 295.545c0-35.48-28.762-64.242-64.242-64.242-34.559 0-113.951-23.638-155.737-65.423-41.786-41.786-64.768 4.357-91.928 4.357-27.161 0-50.142-20.985-85.661-20.985-35.518 0-34.473 51.279-34.473 92.02v54.273h432.041z"/><path style="fill:#c3c6c8" d="M217.382 165.88c-41.786-41.786-64.768 4.357-91.928 4.357-27.161 0-50.142-20.985-85.661-20.985-27.653 0-33.142 31.085-34.217 64.078 26.574 3.768 84.781 26.672 105.105 82.215h125.001c-14.686-59.25 17.115-72.73 43.827-60.756 21.455 9.618 40.715-2.11 42.403-12.509-35.873-10.456-77.86-29.731-104.53-56.4z"/><path style="fill:#0071ce" d="M165.745 233.867h-57a7.5 7.5 0 0 1 0-15h57a7.5 7.5 0 0 1 0 15zM181.01 256.711h-57a7.5 7.5 0 0 1 0-15h57a7.5 7.5 0 0 1 0 15z"/><path style="fill:#00b3e3" d="M125.454 170.237c-27.161 0-50.142-20.985-85.661-20.985-12.555 0-20.53 6.42-25.608 16.504 30.033 5.918 64.411 35.633 108.864 33.708 24.479-1.06 57.639-33.992 93.814-34.09-41.456-40.883-64.362 4.863-91.409 4.863z"/><path style="fill:#e8e8e8" d="M429.608 289.846h-35.8c-66.146 0-265.817-16.922-326.298-16.922H14.32c-8.438 0-14.32 6.905-14.32 15.344v32.215c0 8.438 5.882 15.343 14.32 15.343h415.287c10.127 0 18.412-8.286 18.412-18.412v-9.156c.001-10.127-8.285-18.412-18.411-18.412z"/><path style="fill:#0071ce" d="M382.12 289.704c-29.316-.629-74.753-3.306-122.727-6.345 2.492 7.871 3.945 15.984 1.783 21.016-2.956 6.879-16.243 20.591-27.504 31.451H376.47c4.412-13.59 7.729-30.132 5.65-46.122z"/><path style="fill:#00b3e3" d="M99.177 311.875H48.51a7.5 7.5 0 0 1 0-15h50.667a7.5 7.5 0 0 1 0 15z"/><circle style="fill:#00416a" cx="209.986" cy="185.568" r="7.5"/><circle style="fill:#00416a" cx="232.673" cy="201.289" r="7.5"/><circle style="fill:#00416a" cx="257.843" cy="214.945" r="7.501"/></svg>