<svg version="1.1" id="Layer_1" xmlns="http://www.w3.org/2000/svg" x="0" y="0" viewBox="0 0 512 512" style="enable-background:new 0 0 512 512" xml:space="preserve"><path style="fill:#5a7dbe" d="M52.967 8.828v52.966h406.069V8.828A8.829 8.829 0 0 0 450.208 0H61.794a8.828 8.828 0 0 0-8.827 8.828z"/><path style="fill:#4d71b4" d="M211.863 0h17.655v61.793h-17.655z"/><path style="fill:#6487c8" d="M449.516 52.966h-69.929V8.828A8.826 8.826 0 0 0 370.759 0a8.826 8.826 0 0 0-8.828 8.828v44.138H150.07V8.828c0-4.875-3.948-8.828-8.828-8.828s-8.828 3.953-8.828 8.828v44.138H62.486c-10.017 0-18.027 8.324-17.642 18.334l16.623 432.212a8.827 8.827 0 0 0 8.821 8.489h150.723a8.827 8.827 0 0 0 8.821-8.501l8.21-221.67c.352-9.49 8.147-17.002 17.643-17.002h.629c9.496 0 17.291 7.512 17.643 17.002l8.21 221.67a8.827 8.827 0 0 0 8.821 8.501h150.723a8.827 8.827 0 0 0 8.821-8.489L467.155 71.3c.388-10.01-7.622-18.334-17.639-18.334z"/><path style="fill:#5a7dbe" d="M48.139 156.966h31.31v-51.034a8.829 8.829 0 0 0-8.828-8.828H45.837l2.302 59.862zM221.012 512a8.827 8.827 0 0 0 8.821-8.501l.993-26.809H60.436l1.032 26.822a8.827 8.827 0 0 0 8.821 8.489h150.723zM281.176 476.69l.993 26.809A8.827 8.827 0 0 0 290.99 512h150.723a8.827 8.827 0 0 0 8.821-8.489l1.032-26.822h-170.39z"/><circle style="fill:#4d71b4" cx="256.001" cy="26.483" r="8.828"/><path style="fill:#4d71b4" d="M459.036 176.552h4.074l1.018-26.483h-5.092c-24.376 0-44.138-19.762-44.138-44.138V52.966h-26.483v52.966c0 39.002 31.618 70.62 70.621 70.62zM52.967 176.552h-4.074l-1.018-26.483h5.092c24.376 0 44.138-19.762 44.138-44.138V52.966h26.483v52.966c-.001 39.002-31.619 70.62-70.621 70.62z"/><path style="fill:#5a7dbe" d="M256.001 52.966h-17.656v226.637c1.393-8.399 8.609-14.775 17.341-14.775H256V220.69h8.828a8.829 8.829 0 0 0 8.828-8.828V52.966h-17.655z"/></svg>